<svg width="24" height="24" xmlns="http://www.w3.org/2000/svg">
    <path fill="currentColor" d="M6.972 4.09A6.98 6.98 0 0 0 0 11.062a6.98 6.98 0 0 0 6.972 6.972c1.73 0 3.314-.634 4.534-1.68a6.897 6.897 0 0 1-.304-1.115 5.923 5.923 0 0 1-4.23 1.765 5.922 5.922 0 0 1-3.488-1.127c1.592.275 4.196.59 5.64.028.638-.249 1.334-.819 1.977-1.465a6.934 6.934 0 0 1 .505-3.117c-1.213 1.159-2.813 2.51-4.096 2.967-1.492.533-4.4.21-5.49.063a5.91 5.91 0 0 1-.949-2.584c.991-.188 3.077-.572 4.287-.707 1.607-.18 3.478.595 4.843-.272.824-.524 1.457-2.174 1.733-3.005.343.52.607 1.098.774 1.716.249-.297.521-.573.815-.825a6.983 6.983 0 0 0-6.55-4.586zm0 1.029c1.36 0 2.61.454 3.61 1.219-.255.961-.826 2.686-1.732 3.11C7.433 10.11 5.802 8 4.28 8.37 2.916 8.703 1.99 9.967 1.03 11.05a5.935 5.935 0 0 1 5.943-5.93Zm11.085 2.906c-.413 0-.816.042-1.205.122.078.507.182 1.225.279 2.052.18 1.541.331 3.376.175 4.69-.106.895-.487 2.041-.84 3-.27.738-.524 1.347-.628 1.594a6.004 6.004 0 0 0 3.293.33c.28-.924.828-2.908.756-4.07-.06-.962-1.136-1.806-.915-2.744.301-1.276 2.255-2.723 3.177-3.346a5.923 5.923 0 0 0-4.092-1.628zm-2.2.42a5.9 5.9 0 0 0-.923.463c.043 1.027.126 3.542-.024 5.056-.142 1.435-.712 3.778-.864 4.392.269.246.56.468.871.661.113-.268.34-.819.583-1.482.342-.93.702-2.07.784-2.767.133-1.116 0-2.94-.176-4.45a55.742 55.742 0 0 0-.252-1.874Zm-1.928 1.244a5.924 5.924 0 0 0-1.815 4.279c0 1.285.406 2.473 1.096 3.444.236-1.019.583-2.614.676-3.549.107-1.082.079-2.941.043-4.174zm9.265 1.284c-.378.801-.938 2.094-1.049 2.94-.145 1.113.18 3.034.367 3.992A5.922 5.922 0 0 0 24 13.968a5.926 5.926 0 0 0-.806-2.995Z" style="stroke-width:.0571747" />
</svg>